<svg height="300" viewBox="0 0 34 34" width="300" xmlns="http://www.w3.org/2000/svg"><g fill="none" fill-rule="evenodd"><rect fill="#000" height="33" rx="2.5" width="33" x=".5" y=".5"/><g fill="#fff"><path d="m31 1c1.1045695 0 2 .8954305 2 2v28c0 1.1045695-.8954305 2-2 2h-28c-1.1045695 0-2-.8954305-2-2v-28c0-1.1045695.8954305-2 2-2zm0-1h-28c-1.65685425 0-3 1.34314575-3 3v28c0 1.6568542 1.34314575 3 3 3h28c1.6568542 0 3-1.3431458 3-3v-28c0-1.65685425-1.3431458-3-3-3z"/><path d="m17 7c-5.1356533-.00006452-9.43643467 3.8900895-9.95 9h6.95v-1.5c0-.2761424.2238576-.5.5-.5h5c.2761424 0 .5.2238576.5.5v5c0 .2761424-.2238576.5-.5.5h-5c-.2761424 0-.5-.2238576-.5-.5v-1.5h-6.95c.53928848 5.3658527 5.2362527 9.3375518 10.6171192 8.9777144 5.3808665-.3598375 9.5071695-4.9215795 9.3271843-10.3114601-.1799852-5.3898805-4.6014187-9.66618655-9.9943035-9.6662543z"/></g></g></svg>